<svg width="28" height="31" viewBox="0 0 28 31" fill="none" xmlns="http://www.w3.org/2000/svg">
<path d="M3.11111 31H24.8889C26.6047 31 28 29.6096 28 27.9V10.85C28 10.4389 27.8361 10.0447 27.5444 9.75398C27.2527 9.4633 26.857 9.3 26.4444 9.3H21.7778V7.75C21.7778 3.47665 18.2887 0 14 0C9.71133 0 6.22222 3.47665 6.22222 7.75V9.3H1.55556C1.143 9.3 0.747335 9.4633 0.455612 9.75398C0.163888 10.0447 0 10.4389 0 10.85V27.9C0 29.6096 1.39533 31 3.11111 31ZM9.33333 7.75C9.33333 5.1863 11.4271 3.1 14 3.1C16.5729 3.1 18.6667 5.1863 18.6667 7.75V9.3H9.33333V7.75ZM3.11111 12.4H6.22222V15.5H9.33333V12.4H18.6667V15.5H21.7778V12.4H24.8889L24.892 27.9H3.11111V12.4Z" fill="#333258"/>
</svg>
