<svg width="392" height="392" viewBox="0 0 392 392" fill="none" xmlns="http://www.w3.org/2000/svg">
<path d="M195.984 162.368L215.714 51.7791L199.885 29.9387L207.652 14.3599H184.319L192.102 29.9387L176.249 51.7791L195.984 162.368Z" fill="#333258"/>
<path d="M308.961 354.474H340.131L332.352 222.008L316.74 46.7485L242.74 15.591L234.949 0.0122699L227.166 31.1697L195.988 210.339L164.83 31.1575L157.027 0L149.243 15.5787L75.2393 46.7321L59.6523 222.008L51.8732 354.474H83.0348L111.468 182.564L121.971 221.988L90.8016 353.051L180.393 392L195.971 315.342L211.542 392L301.149 353.051L269.963 221.988L280.474 182.564L308.961 354.474ZM278.115 111.489L246.454 115.877L267.391 90.0614L278.115 98.3476V111.489Z" fill="#333258"/>
</svg>
