<svg width="20" height="19" viewBox="0 0 20 19" fill="none" xmlns="http://www.w3.org/2000/svg">
<path d="M19.1115 7.67577H10.0282V11.307H15.2172C14.9934 12.4808 14.3146 13.4736 13.2914 14.1387C12.4266 14.7011 11.3229 15.0336 10.0256 15.0336C7.51409 15.0336 5.38971 13.3831 4.63046 11.1652C4.43939 10.6028 4.32877 10.0012 4.32877 9.38258C4.32877 8.76392 4.43939 8.16238 4.63046 7.59996C5.39222 5.38453 7.51661 3.73396 10.0282 3.73396C11.4436 3.73396 12.7132 4.20835 13.7138 5.13756L16.4792 2.44529C14.8074 0.929211 12.6277 0 10.0282 0C6.25957 0 2.99883 2.10295 1.41246 5.16934C0.7588 6.43601 0.386719 7.86895 0.386719 9.38503C0.386719 10.9011 0.7588 12.3316 1.41246 13.5983C2.99883 16.6647 6.25957 18.7676 10.0282 18.7676C12.6327 18.7676 14.8149 17.9264 16.4089 16.4935C18.2316 14.86 19.2849 12.4539 19.2849 9.59532C19.2849 8.9302 19.2246 8.29198 19.1115 7.67577Z" fill="white"/>
</svg>
