<svg width="216" height="71" viewBox="0 0 216 71" fill="none" xmlns="http://www.w3.org/2000/svg">
<path d="M35.4972 29.4082L39.0707 9.37805L36.2039 5.42224L37.6106 2.60059H33.3844L34.7941 5.42224L31.9229 9.37805L35.4972 29.4082Z" fill="#333258"/>
<path d="M55.9599 64.2033H61.6055L60.1965 40.2107L57.3689 8.4672L43.9658 2.82388L42.5546 0.00222236L41.1449 5.64554L35.4979 38.0972L29.8546 5.64332L28.4411 0L27.0314 2.82166L13.6276 8.46423L10.8045 40.2107L9.39551 64.2033H15.0396L20.1895 33.0665L22.0919 40.207L16.4463 63.9455L32.6733 71L35.4949 57.1154L38.3151 71L54.545 63.9455L48.8965 40.207L50.8003 33.0665L55.9599 64.2033ZM50.3729 20.1931L44.6385 20.988L48.4305 16.3121L50.3729 17.813V20.1931Z" fill="#333258"/>
<path d="M88.38 14.84C88.2867 15.9733 88.24 16.9867 88.24 17.88C88.24 18.5067 88.26 19.0133 88.3 19.4H87.84C87.5733 17.8933 87.1733 16.8333 86.64 16.22C86.1067 15.6067 85.36 15.3 84.4 15.3H83.74C83.3267 15.3 83.0267 15.3333 82.84 15.4C82.6533 15.4667 82.5267 15.6 82.46 15.8C82.3933 15.9867 82.36 16.2933 82.36 16.72V21.76H83.06C83.7667 21.76 84.3 21.5 84.66 20.98C85.0333 20.46 85.2933 19.84 85.44 19.12H85.9C85.86 19.68 85.84 20.3067 85.84 21V21.96C85.84 22.64 85.88 23.5867 85.96 24.8H85.5C85.22 23.04 84.4067 22.16 83.06 22.16H82.36V26.76C82.36 27.2933 82.4133 27.6867 82.52 27.94C82.64 28.18 82.84 28.34 83.12 28.42C83.4133 28.5 83.8733 28.5467 84.5 28.56V29C82.86 28.96 81.64 28.94 80.84 28.94C80.1733 28.94 79.3333 28.9533 78.32 28.98L77.68 29V28.6C78.12 28.5733 78.44 28.52 78.64 28.44C78.8533 28.36 78.9933 28.2067 79.06 27.98C79.14 27.7533 79.18 27.3867 79.18 26.88V16.96C79.18 16.4533 79.14 16.0867 79.06 15.86C78.9933 15.6333 78.8533 15.48 78.64 15.4C78.44 15.32 78.12 15.2667 77.68 15.24V14.84C79.12 14.88 81.2933 14.9 84.2 14.9C86.16 14.9 87.5533 14.88 88.38 14.84ZM105.382 27.32C105.555 27.76 105.755 28.08 105.982 28.28C106.208 28.48 106.428 28.5867 106.642 28.6V29C105.842 28.96 104.828 28.94 103.602 28.94C102.242 28.94 101.228 28.96 100.562 29V28.6C101.068 28.5733 101.428 28.5133 101.642 28.42C101.855 28.3133 101.962 28.1333 101.962 27.88C101.962 27.64 101.882 27.32 101.722 26.92L100.522 23.64H96.1617L95.6417 25.02C95.2684 25.98 95.0817 26.72 95.0817 27.24C95.0817 27.7333 95.2284 28.08 95.5217 28.28C95.8284 28.4667 96.2751 28.5733 96.8617 28.6V29C95.9551 28.96 95.1284 28.94 94.3817 28.94C93.7684 28.94 93.2617 28.96 92.8617 29V28.6C93.5151 28.48 94.0884 27.78 94.5817 26.5L99.1417 14.8C99.2884 14.8133 99.5217 14.82 99.8417 14.82C100.162 14.82 100.388 14.8133 100.522 14.8L105.382 27.32ZM100.382 23.24L98.4017 17.84L96.3217 23.24H100.382ZM117.582 14.58C118.275 14.58 118.828 14.6467 119.242 14.78C119.655 14.9133 120.075 15.1067 120.502 15.36C120.648 15.44 120.775 15.5067 120.882 15.56C121.002 15.6133 121.102 15.64 121.182 15.64C121.302 15.64 121.395 15.5733 121.462 15.44C121.528 15.2933 121.582 15.0667 121.622 14.76H122.082C122.015 15.6533 121.982 17.1733 121.982 19.32H121.522C121.468 18.6 121.302 17.9133 121.022 17.26C120.755 16.6067 120.368 16.08 119.862 15.68C119.368 15.2667 118.788 15.06 118.122 15.06C117.468 15.06 116.935 15.2467 116.522 15.62C116.122 15.98 115.922 16.4733 115.922 17.1C115.922 17.5667 116.022 17.9733 116.222 18.32C116.422 18.6667 116.702 18.9867 117.062 19.28C117.422 19.56 117.975 19.9467 118.722 20.44L119.362 20.88C120.148 21.4 120.768 21.8533 121.222 22.24C121.675 22.6267 122.042 23.08 122.322 23.6C122.615 24.1067 122.762 24.7 122.762 25.38C122.762 26.2333 122.542 26.9533 122.102 27.54C121.662 28.1133 121.062 28.5467 120.302 28.84C119.555 29.1333 118.722 29.28 117.802 29.28C117.055 29.28 116.435 29.2133 115.942 29.08C115.448 28.9467 114.995 28.7667 114.582 28.54C114.288 28.3533 114.062 28.26 113.902 28.26C113.782 28.26 113.688 28.3333 113.622 28.48C113.555 28.6133 113.502 28.8333 113.462 29.14H113.002C113.055 28.3 113.082 26.5 113.082 23.74H113.542C113.635 25.2333 113.968 26.4467 114.542 27.38C115.115 28.3 115.995 28.76 117.182 28.76C117.902 28.76 118.495 28.5667 118.962 28.18C119.428 27.7933 119.662 27.24 119.662 26.52C119.662 25.7733 119.422 25.1333 118.942 24.6C118.462 24.0667 117.702 23.4667 116.662 22.8C115.862 22.28 115.222 21.8267 114.742 21.44C114.262 21.0533 113.868 20.6 113.562 20.08C113.255 19.5467 113.102 18.9333 113.102 18.24C113.102 17.44 113.302 16.7667 113.702 16.22C114.115 15.66 114.662 15.2467 115.342 14.98C116.022 14.7133 116.768 14.58 117.582 14.58ZM144.321 15.24C143.868 15.2667 143.541 15.32 143.341 15.4C143.141 15.48 143.001 15.6333 142.921 15.86C142.855 16.0867 142.821 16.4533 142.821 16.96V26.88C142.821 27.3867 142.855 27.7533 142.921 27.98C143.001 28.2067 143.141 28.36 143.341 28.44C143.541 28.52 143.868 28.5733 144.321 28.6V29C143.668 28.96 142.655 28.94 141.281 28.94C139.935 28.94 138.888 28.96 138.141 29V28.6C138.581 28.5733 138.901 28.52 139.101 28.44C139.315 28.36 139.455 28.2067 139.521 27.98C139.601 27.7533 139.641 27.3867 139.641 26.88V22.08H134.341V26.88C134.341 27.3867 134.375 27.7533 134.441 27.98C134.521 28.2067 134.661 28.36 134.861 28.44C135.061 28.52 135.388 28.5733 135.841 28.6V29C135.121 28.96 134.115 28.94 132.821 28.94C131.395 28.94 130.341 28.96 129.661 29V28.6C130.101 28.5733 130.421 28.52 130.621 28.44C130.835 28.36 130.975 28.2067 131.041 27.98C131.121 27.7533 131.161 27.3867 131.161 26.88V16.96C131.161 16.4533 131.121 16.0867 131.041 15.86C130.975 15.6333 130.835 15.48 130.621 15.4C130.421 15.32 130.101 15.2667 129.661 15.24V14.84C130.341 14.88 131.395 14.9 132.821 14.9C134.115 14.9 135.121 14.88 135.841 14.84V15.24C135.388 15.2667 135.061 15.32 134.861 15.4C134.661 15.48 134.521 15.6333 134.441 15.86C134.375 16.0867 134.341 16.4533 134.341 16.96V21.68H139.641V16.96C139.641 16.4533 139.601 16.0867 139.521 15.86C139.455 15.6333 139.315 15.48 139.101 15.4C138.901 15.32 138.581 15.2667 138.141 15.24V14.84C138.888 14.88 139.935 14.9 141.281 14.9C142.655 14.9 143.668 14.88 144.321 14.84V15.24ZM157.237 15.24C156.784 15.2667 156.457 15.32 156.257 15.4C156.057 15.48 155.917 15.6333 155.837 15.86C155.771 16.0867 155.737 16.4533 155.737 16.96V26.88C155.737 27.3867 155.771 27.7533 155.837 27.98C155.917 28.2067 156.057 28.36 156.257 28.44C156.457 28.52 156.784 28.5733 157.237 28.6V29C156.517 28.96 155.511 28.94 154.217 28.94C152.791 28.94 151.737 28.96 151.057 29V28.6C151.497 28.5733 151.817 28.52 152.017 28.44C152.231 28.36 152.371 28.2067 152.437 27.98C152.517 27.7533 152.557 27.3867 152.557 26.88V16.96C152.557 16.4533 152.517 16.0867 152.437 15.86C152.371 15.6333 152.231 15.48 152.017 15.4C151.817 15.32 151.497 15.2667 151.057 15.24V14.84C151.737 14.88 152.791 14.9 154.217 14.9C155.511 14.9 156.517 14.88 157.237 14.84V15.24ZM171.081 14.56C172.494 14.56 173.727 14.8467 174.781 15.42C175.847 15.9933 176.674 16.8267 177.261 17.92C177.847 19 178.141 20.2933 178.141 21.8C178.141 23.2667 177.841 24.5667 177.241 25.7C176.641 26.8333 175.801 27.7133 174.721 28.34C173.654 28.9667 172.434 29.28 171.061 29.28C169.647 29.28 168.407 28.9933 167.341 28.42C166.287 27.8467 165.467 27.02 164.881 25.94C164.294 24.8467 164.001 23.5467 164.001 22.04C164.001 20.5733 164.301 19.2733 164.901 18.14C165.501 17.0067 166.334 16.1267 167.401 15.5C168.481 14.8733 169.707 14.56 171.081 14.56ZM171.001 14.92C170.267 14.92 169.621 15.22 169.061 15.82C168.501 16.4067 168.067 17.2333 167.761 18.3C167.467 19.3667 167.321 20.5867 167.321 21.96C167.321 23.3467 167.487 24.5667 167.821 25.62C168.167 26.6733 168.627 27.4867 169.201 28.06C169.787 28.6333 170.434 28.92 171.141 28.92C171.874 28.92 172.521 28.6267 173.081 28.04C173.641 27.44 174.067 26.6067 174.361 25.54C174.667 24.4733 174.821 23.2533 174.821 21.88C174.821 20.4933 174.647 19.2733 174.301 18.22C173.967 17.1667 173.507 16.3533 172.921 15.78C172.347 15.2067 171.707 14.92 171.001 14.92ZM198.104 15.24C197.664 15.3067 197.337 15.42 197.124 15.58C196.924 15.74 196.784 15.9933 196.704 16.34C196.637 16.6867 196.604 17.2 196.604 17.88V29.04L196.124 29.02L195.584 29.04L186.904 18.04V25.72C186.904 26.5067 186.944 27.0867 187.024 27.46C187.104 27.82 187.277 28.0867 187.544 28.26C187.81 28.42 188.244 28.5333 188.844 28.6V29C188.324 28.96 187.604 28.94 186.684 28.94C185.95 28.94 185.37 28.96 184.944 29V28.6C185.384 28.5333 185.704 28.42 185.904 28.26C186.117 28.1 186.257 27.8467 186.324 27.5C186.404 27.1533 186.444 26.64 186.444 25.96V16.96C186.444 16.4533 186.404 16.0867 186.324 15.86C186.257 15.6333 186.117 15.48 185.904 15.4C185.704 15.32 185.384 15.2667 184.944 15.24V14.84C185.37 14.88 185.95 14.9 186.684 14.9C187.35 14.9 187.924 14.88 188.404 14.84L196.144 24.38V18.12C196.144 17.3333 196.104 16.76 196.024 16.4C195.944 16.0267 195.77 15.76 195.504 15.6C195.237 15.4267 194.804 15.3067 194.204 15.24V14.84C194.724 14.88 195.444 14.9 196.364 14.9C197.11 14.9 197.69 14.88 198.104 14.84V15.24ZM83.86 40.84C86.46 40.84 88.4067 41.4333 89.7 42.62C90.9933 43.7933 91.64 45.5067 91.64 47.76C91.64 49.2133 91.32 50.4867 90.68 51.58C90.0533 52.66 89.14 53.5 87.94 54.1C86.7533 54.7 85.3333 55 83.68 55L82.44 54.98C81.6667 54.9533 81.1067 54.94 80.76 54.94C79.3867 54.94 78.36 54.96 77.68 55V54.6C78.12 54.5733 78.44 54.52 78.64 54.44C78.8533 54.36 78.9933 54.2067 79.06 53.98C79.14 53.7533 79.18 53.3867 79.18 52.88V42.96C79.18 42.4533 79.14 42.0867 79.06 41.86C78.9933 41.6333 78.8533 41.48 78.64 41.4C78.44 41.32 78.12 41.2667 77.68 41.24V40.84C78.24 40.88 79.0467 40.9 80.1 40.9H80.72L81.52 40.88C82.6133 40.8533 83.3933 40.84 83.86 40.84ZM83.84 41.2C83.4267 41.2 83.1133 41.2467 82.9 41.34C82.7 41.4333 82.56 41.6 82.48 41.84C82.4 42.08 82.36 42.44 82.36 42.92V52.92C82.36 53.4 82.4 53.76 82.48 54C82.56 54.24 82.7 54.4067 82.9 54.5C83.1133 54.5933 83.4333 54.64 83.86 54.64C85.4733 54.64 86.62 54.08 87.3 52.96C87.98 51.8267 88.32 50.12 88.32 47.84C88.32 45.56 87.9667 43.8867 87.26 42.82C86.5667 41.74 85.4267 41.2 83.84 41.2ZM111.23 41.24C110.79 41.3067 110.463 41.42 110.25 41.58C110.05 41.74 109.91 41.9933 109.83 42.34C109.763 42.6867 109.73 43.2 109.73 43.88V49.18C109.73 51.0867 109.457 52.5 108.91 53.42C108.55 54.0067 108.03 54.4667 107.35 54.8C106.67 55.12 105.837 55.28 104.85 55.28C103.303 55.28 102.103 54.9467 101.25 54.28C100.637 53.7867 100.223 53.1667 100.01 52.42C99.7968 51.66 99.6902 50.6 99.6902 49.24V42.96C99.6902 42.4533 99.6502 42.0867 99.5702 41.86C99.5035 41.6333 99.3635 41.48 99.1502 41.4C98.9502 41.32 98.6302 41.2667 98.1902 41.24V40.84C98.8702 40.88 99.9102 40.9 101.31 40.9C102.697 40.9 103.757 40.88 104.49 40.84V41.24C104.01 41.2667 103.657 41.32 103.43 41.4C103.217 41.48 103.07 41.6333 102.99 41.86C102.91 42.0867 102.87 42.4533 102.87 42.96V50.5C102.87 51.9 103.07 52.9333 103.47 53.6C103.883 54.2533 104.603 54.58 105.63 54.58C106.963 54.58 107.903 54.1333 108.45 53.24C108.997 52.3333 109.27 51.0533 109.27 49.4V44.12C109.27 43.3467 109.223 42.7733 109.13 42.4C109.037 42.0267 108.857 41.76 108.59 41.6C108.323 41.4267 107.903 41.3067 107.33 41.24V40.84C107.837 40.88 108.557 40.9 109.49 40.9C110.237 40.9 110.817 40.88 111.23 40.84V41.24ZM126.607 58.36C127.167 58.3067 127.627 58.14 127.987 57.86C128.361 57.5933 128.641 57.14 128.827 56.5C129.027 55.8733 129.127 55.0133 129.127 53.92V42.96C129.127 42.4533 129.087 42.0867 129.007 41.86C128.941 41.6333 128.801 41.48 128.587 41.4C128.387 41.32 128.067 41.2667 127.627 41.24V40.84C128.294 40.88 129.301 40.9 130.647 40.9C132.021 40.9 133.074 40.88 133.807 40.84V41.24C133.354 41.2667 133.027 41.32 132.827 41.4C132.627 41.48 132.487 41.6333 132.407 41.86C132.341 42.0867 132.307 42.4533 132.307 42.96V50.28V51.5C132.307 53.38 132.194 54.7133 131.967 55.5C131.687 56.4733 131.087 57.26 130.167 57.86C129.261 58.46 128.074 58.76 126.607 58.76V58.36ZM147.556 40.56C148.969 40.56 150.202 40.8467 151.256 41.42C152.322 41.9933 153.149 42.8267 153.736 43.92C154.322 45 154.616 46.2933 154.616 47.8C154.616 49.2667 154.316 50.5667 153.716 51.7C153.116 52.8333 152.276 53.7133 151.196 54.34C150.129 54.9667 148.909 55.28 147.536 55.28C146.122 55.28 144.882 54.9933 143.816 54.42C142.762 53.8467 141.942 53.02 141.356 51.94C140.769 50.8467 140.476 49.5467 140.476 48.04C140.476 46.5733 140.776 45.2733 141.376 44.14C141.976 43.0067 142.809 42.1267 143.876 41.5C144.956 40.8733 146.182 40.56 147.556 40.56ZM147.476 40.92C146.742 40.92 146.096 41.22 145.536 41.82C144.976 42.4067 144.542 43.2333 144.236 44.3C143.942 45.3667 143.796 46.5867 143.796 47.96C143.796 49.3467 143.962 50.5667 144.296 51.62C144.642 52.6733 145.102 53.4867 145.676 54.06C146.262 54.6333 146.909 54.92 147.616 54.92C148.349 54.92 148.996 54.6267 149.556 54.04C150.116 53.44 150.542 52.6067 150.836 51.54C151.142 50.4733 151.296 49.2533 151.296 47.88C151.296 46.4933 151.122 45.2733 150.776 44.22C150.442 43.1667 149.982 42.3533 149.396 41.78C148.822 41.2067 148.182 40.92 147.476 40.92ZM174.197 41.24C173.757 41.3067 173.431 41.42 173.217 41.58C173.017 41.74 172.877 41.9933 172.797 42.34C172.731 42.6867 172.697 43.2 172.697 43.88V49.18C172.697 51.0867 172.424 52.5 171.877 53.42C171.517 54.0067 170.997 54.4667 170.317 54.8C169.637 55.12 168.804 55.28 167.817 55.28C166.271 55.28 165.071 54.9467 164.217 54.28C163.604 53.7867 163.191 53.1667 162.977 52.42C162.764 51.66 162.657 50.6 162.657 49.24V42.96C162.657 42.4533 162.617 42.0867 162.537 41.86C162.471 41.6333 162.331 41.48 162.117 41.4C161.917 41.32 161.597 41.2667 161.157 41.24V40.84C161.837 40.88 162.877 40.9 164.277 40.9C165.664 40.9 166.724 40.88 167.457 40.84V41.24C166.977 41.2667 166.624 41.32 166.397 41.4C166.184 41.48 166.037 41.6333 165.957 41.86C165.877 42.0867 165.837 42.4533 165.837 42.96V50.5C165.837 51.9 166.037 52.9333 166.437 53.6C166.851 54.2533 167.571 54.58 168.597 54.58C169.931 54.58 170.871 54.1333 171.417 53.24C171.964 52.3333 172.237 51.0533 172.237 49.4V44.12C172.237 43.3467 172.191 42.7733 172.097 42.4C172.004 42.0267 171.824 41.76 171.557 41.6C171.291 41.4267 170.871 41.3067 170.297 41.24V40.84C170.804 40.88 171.524 40.9 172.457 40.9C173.204 40.9 173.784 40.88 174.197 40.84V41.24ZM194.206 54.12C193.846 54.5333 193.46 54.8267 193.046 55C192.633 55.1867 192.133 55.28 191.546 55.28C190.773 55.28 190.16 55.12 189.706 54.8C189.266 54.4667 188.98 53.9067 188.846 53.12L188.486 51.12C188.313 50.1467 188.1 49.4333 187.846 48.98C187.606 48.5133 187.2 48.28 186.626 48.28H185.326V52.88C185.326 53.3867 185.36 53.7533 185.426 53.98C185.506 54.2067 185.646 54.36 185.846 54.44C186.046 54.52 186.373 54.5733 186.826 54.6V55C186.106 54.96 185.1 54.94 183.806 54.94C182.38 54.94 181.326 54.96 180.646 55V54.6C181.086 54.5733 181.406 54.52 181.606 54.44C181.82 54.36 181.96 54.2067 182.026 53.98C182.106 53.7533 182.146 53.3867 182.146 52.88V42.96C182.146 42.4533 182.106 42.0867 182.026 41.86C181.96 41.6333 181.82 41.48 181.606 41.4C181.406 41.32 181.086 41.2667 180.646 41.24V40.84C181.326 40.88 182.34 40.9 183.686 40.9L185.906 40.88C186.173 40.8667 186.48 40.86 186.826 40.86C188.666 40.86 190.046 41.16 190.966 41.76C191.9 42.36 192.366 43.22 192.366 44.34C192.366 45.2867 192.02 46.12 191.326 46.84C190.633 47.56 189.486 48.0133 187.886 48.2C189.086 48.3067 189.98 48.5667 190.566 48.98C191.153 49.3933 191.533 50.0133 191.706 50.84L192.166 52.9C192.273 53.4333 192.393 53.8067 192.526 54.02C192.673 54.2333 192.873 54.34 193.126 54.34C193.286 54.3267 193.42 54.2867 193.526 54.22C193.646 54.1533 193.78 54.04 193.926 53.88L194.206 54.12ZM186.566 41.24C186.206 41.24 185.94 41.2867 185.766 41.38C185.606 41.4733 185.493 41.64 185.426 41.88C185.36 42.12 185.326 42.48 185.326 42.96V47.88H186.186C187.28 47.88 188.026 47.5933 188.426 47.02C188.84 46.4333 189.046 45.6133 189.046 44.56C189.046 43.4667 188.853 42.64 188.466 42.08C188.08 41.52 187.446 41.24 186.566 41.24Z" fill="#333258"/>
</svg>
