<svg width="28" height="36" viewBox="0 0 28 36" fill="none" xmlns="http://www.w3.org/2000/svg">
<path d="M14.8756 0C7.39347 0 0 4.9333 0 12.9178C0 17.9953 2.88762 20.8803 4.63769 20.8803C5.35989 20.8803 5.77524 18.8896 5.77524 18.3276C5.77524 17.6572 4.04734 16.2285 4.04734 13.437C4.04734 7.63825 8.51002 3.52659 14.2853 3.52659C19.2508 3.52659 22.926 6.31809 22.926 11.4464C22.926 15.2765 21.3731 22.4601 16.341 22.4601C14.5256 22.4601 12.9715 21.1618 12.9715 19.3016C12.9715 16.5747 14.8966 13.9356 14.8966 11.1221C14.8966 6.34809 8.04917 7.21358 8.04917 12.9835C8.04917 14.1952 8.20201 15.5361 8.7492 16.6405C7.74232 20.9253 5.68657 27.308 5.68657 31.722C5.68657 33.0849 5.88374 34.4269 6.01442 35.7898C6.26176 36.0645 6.13809 36.0356 6.51727 35.8983C10.1924 30.9211 10.0618 29.9483 11.7243 23.4352C12.6215 25.1235 14.9398 26.0317 16.7774 26.0317C24.5209 26.0317 28 18.5665 28 11.8376C28 4.67596 21.7429 0.00230798 14.8745 0.00230798L14.8756 0Z" fill="#D50808"/>
</svg>
