<svg width="30" height="31" viewBox="0 0 30 31" fill="none" xmlns="http://www.w3.org/2000/svg">
<path d="M28.823 25.2985C28.0705 23.5583 26.9784 21.9777 25.6076 20.6446C24.241 19.3077 22.6221 18.2417 20.8404 17.5057C20.8244 17.4979 20.8085 17.494 20.7925 17.4862C23.2779 15.7337 24.8936 12.879 24.8936 9.65829C24.8936 4.32286 20.4654 0 15 0C9.53461 0 5.10645 4.32286 5.10645 9.65829C5.10645 12.879 6.72213 15.7337 9.20749 17.4901C9.19153 17.4979 9.17557 17.5018 9.15961 17.5095C7.37239 18.2456 5.76868 19.301 4.39236 20.6485C3.02286 21.9826 1.93096 23.563 1.17695 25.3024C0.436223 27.0053 0.0367296 28.831 9.97573e-05 30.6807C-0.000965016 30.7222 0.00650313 30.7636 0.0220644 30.8023C0.0376256 30.841 0.0609649 30.8763 0.0907071 30.906C0.120449 30.9358 0.155993 30.9594 0.195243 30.9756C0.234493 30.9917 0.276656 31 0.319247 31H2.71285C2.88838 31 3.02801 30.8637 3.03199 30.6962C3.11178 27.6897 4.34847 24.874 6.53463 22.7398C8.79658 20.5317 11.8006 19.3166 15 19.3166C18.1994 19.3166 21.2034 20.5317 23.4654 22.7398C25.6515 24.874 26.8882 27.6897 26.968 30.6962C26.972 30.8676 27.1116 31 27.2872 31H29.6808C29.7233 31 29.7655 30.9917 29.8048 30.9756C29.844 30.9594 29.8796 30.9358 29.9093 30.906C29.939 30.8763 29.9624 30.841 29.9779 30.8023C29.9935 30.7636 30.001 30.7222 29.9999 30.6807C29.96 28.8191 29.5651 27.0082 28.823 25.2985ZM15 16.3568C13.1689 16.3568 11.4455 15.6597 10.149 14.394C8.85243 13.1283 8.13834 11.4459 8.13834 9.65829C8.13834 7.87073 8.85243 6.18832 10.149 4.92261C11.4455 3.65691 13.1689 2.9598 15 2.9598C16.8311 2.9598 18.5545 3.65691 19.851 4.92261C21.1476 6.18832 21.8617 7.87073 21.8617 9.65829C21.8617 11.4459 21.1476 13.1283 19.851 14.394C18.5545 15.6597 16.8311 16.3568 15 16.3568Z" fill="#333258"/>
</svg>
